<svg id="visual" viewBox="0 0 960 540" width="960" height="540" xmlns="http://www.w3.org/2000/svg" xmlns:xlink="http://www.w3.org/1999/xlink" version="1.1"><path d="M0 407L20 407.5C40 408 80 409 120 407.7C160 406.3 200 402.7 240 398.3C280 394 320 389 360 391.2C400 393.3 440 402.7 480 403.7C520 404.7 560 397.3 600 394.3C640 391.3 680 392.7 720 394C760 395.3 800 396.7 840 399.2C880 401.7 920 405.3 940 407.2L960 409L960 541L940 541C920 541 880 541 840 541C800 541 760 541 720 541C680 541 640 541 600 541C560 541 520 541 480 541C440 541 400 541 360 541C320 541 280 541 240 541C200 541 160 541 120 541C80 541 40 541 20 541L0 541Z" fill="#111827"></path><path d="M0 426L20 428.8C40 431.7 80 437.3 120 437C160 436.7 200 430.3 240 428C280 425.7 320 427.3 360 427.3C400 427.3 440 425.7 480 424.7C520 423.7 560 423.3 600 424.8C640 426.3 680 429.7 720 429.5C760 429.3 800 425.7 840 426.5C880 427.3 920 432.7 940 435.3L960 438L960 541L940 541C920 541 880 541 840 541C800 541 760 541 720 541C680 541 640 541 600 541C560 541 520 541 480 541C440 541 400 541 360 541C320 541 280 541 240 541C200 541 160 541 120 541C80 541 40 541 20 541L0 541Z" fill="#161d2c"></path><path d="M0 461L20 462.7C40 464.3 80 467.7 120 469C160 470.3 200 469.7 240 468.2C280 466.7 320 464.3 360 462.3C400 460.3 440 458.7 480 458.7C520 458.7 560 460.3 600 459.7C640 459 680 456 720 455.7C760 455.3 800 457.7 840 459.7C880 461.7 920 463.3 940 464.2L960 465L960 541L940 541C920 541 880 541 840 541C800 541 760 541 720 541C680 541 640 541 600 541C560 541 520 541 480 541C440 541 400 541 360 541C320 541 280 541 240 541C200 541 160 541 120 541C80 541 40 541 20 541L0 541Z" fill="#1a2332"></path><path d="M0 489L20 488.8C40 488.7 80 488.3 120 488.2C160 488 200 488 240 489.7C280 491.3 320 494.7 360 496.2C400 497.7 440 497.3 480 496.2C520 495 560 493 600 492C640 491 680 491 720 491.2C760 491.3 800 491.7 840 491.5C880 491.3 920 490.7 940 490.3L960 490L960 541L940 541C920 541 880 541 840 541C800 541 760 541 720 541C680 541 640 541 600 541C560 541 520 541 480 541C440 541 400 541 360 541C320 541 280 541 240 541C200 541 160 541 120 541C80 541 40 541 20 541L0 541Z" fill="#1f2937"></path></svg>